<?xml version="1.0" encoding="UTF-8"?>
<svg id="V2" xmlns="http://www.w3.org/2000/svg" xmlns:xlink="http://www.w3.org/1999/xlink" version="1.1" viewBox="0 0 880 234.6">
  <!-- Generator: Adobe Illustrator 30.2.1, SVG Export Plug-In . SVG Version: 2.1.1 Build 1)  -->
  <defs>
    <style>
      .st0 {
        fill: #c9f5d6;
      }

      .st1 {
        fill: url(#linear-gradient);
      }

      .st2 {
        fill: #6b7280;
      }

      .st3 {
        isolation: isolate;
      }

      .st4 {
        fill: #fff;
      }

      .st5 {
        fill: #6c9;
      }

      .st6 {
        fill: #061419;
      }
    </style>
    <linearGradient id="linear-gradient" x1="93.4" y1="-44" x2="90.5" y2="-49.1" gradientTransform="translate(-5032.2 2724) scale(56)" gradientUnits="userSpaceOnUse">
      <stop offset="0" stop-color="#6c9"/>
      <stop offset="1" stop-color="#3cb7ff"/>
    </linearGradient>
  </defs>
  <g id="logo">
    <g id="icon">
      <rect class="st1" width="234.6" height="234.6" rx="58.6" ry="58.6"/>
      <g>
        <path class="st4" d="M108.8,140.5c5.5-3.3,11.5-3.5,15.9.6l-11-18c12.6-6.3,25.1-18.8,25.1-37.7s-18.8-44-44-44h-50.2v138.2h25.1v-50.2h15.7l15.7,24.9c-1.1-5.7,2.4-10.6,7.6-13.7h0ZM69.8,104.2v-37.7h25.1c12.6,0,18.8,6.3,18.8,18.8s-6.3,18.8-18.8,18.8h-25.1,0Z"/>
        <path class="st0" d="M134,195.3c-.2,0-.4,0-.6,0-4.2-.2-8-2.5-10.1-6.1l-16.3-27.3c-3.6-6-1.6-13.7,4.3-17.2,6-3.6,13.7-1.6,17.2,4.3l6.7,11.2,46.3-62.3c4.1-5.6,12-6.7,17.6-2.6,5.6,4.1,6.7,12,2.6,17.6l-57.5,77.3c-2.4,3.2-6.1,5.1-10.1,5.1h0Z"/>
      </g>
    </g>
    <g id="text">
      <g class="st3">
        <g class="st3">
          <path class="st6" d="M288.8,112.7V41.4h30.3c7.6,0,13.2.6,16.6,1.9s6.2,3.6,8.3,6.8,3.1,7,3.1,11.2-1.6,9.8-4.7,13.3-7.9,5.7-14.1,6.6c3.1,1.8,5.7,3.8,7.7,6s4.8,6,8.2,11.6l8.7,13.9h-17.2l-10.4-15.5c-3.7-5.5-6.2-9-7.6-10.5s-2.8-2.4-4.3-3-3.9-.8-7.2-.8h-2.9v29.8h-14.4ZM303.2,71.6h10.7c6.9,0,11.2-.3,12.9-.9s3.1-1.6,4-3,1.5-3.2,1.5-5.4-.6-4.3-1.9-5.8-3.1-2.4-5.4-2.8c-1.2-.2-4.7-.2-10.5-.2h-11.2v18.1h0Z"/>
          <path class="st6" d="M390.5,96.3l13.6,2.3c-1.8,5-4.5,8.8-8.3,11.4s-8.5,3.9-14.2,3.9c-9,0-15.6-2.9-19.9-8.8-3.4-4.7-5.1-10.6-5.1-17.8s2.2-15.3,6.7-20.1,10.1-7.3,17-7.3,13.8,2.5,18.2,7.6,6.6,12.9,6.4,23.3h-34.3c0,4.1,1.2,7.2,3.3,9.5s4.7,3.4,7.9,3.4,3.9-.6,5.4-1.8,2.6-3.1,3.3-5.6h0ZM391.3,82.5c0-4-1.1-7-3.1-9s-4.3-3.1-7.1-3.1-5.4,1.1-7.4,3.3-2.9,5.1-2.9,8.9h20.4Z"/>
          <path class="st6" d="M430.2,112.7l-20.8-51.7h14.4l9.7,26.4,2.8,8.8c.7-2.2,1.2-3.7,1.4-4.4.5-1.5.9-2.9,1.5-4.4l9.8-26.4h14.1l-20.5,51.7h-12.3Z"/>
          <path class="st6" d="M471.4,54.1v-12.6h13.7v12.6h-13.7ZM471.4,112.7v-51.7h13.7v51.7h-13.7Z"/>
          <path class="st6" d="M529,96.3l13.6,2.3c-1.8,5-4.5,8.8-8.3,11.4s-8.5,3.9-14.2,3.9c-9,0-15.6-2.9-19.9-8.8-3.4-4.7-5.1-10.6-5.1-17.8s2.2-15.3,6.7-20.1c4.5-4.9,10.1-7.3,17-7.3s13.8,2.5,18.2,7.6,6.6,12.9,6.4,23.3h-34.3c0,4.1,1.2,7.2,3.3,9.5s4.7,3.4,7.9,3.4,3.9-.6,5.4-1.8,2.6-3.1,3.3-5.6h0ZM529.8,82.5c0-4-1.1-7-3.1-9s-4.3-3.1-7.1-3.1-5.4,1.1-7.4,3.3-2.9,5.1-2.9,8.9h20.4Z"/>
          <path class="st6" d="M564.2,112.7l-16.3-51.7h13.3l9.7,33.9,8.9-33.9h13.2l8.6,33.9,9.9-33.9h13.5l-16.6,51.7h-13.1l-8.9-33.2-8.8,33.2h-13.3Z"/>
        </g>
        <g class="st3">
          <path class="st5" d="M691.4,112.7h-15.7l-6.2-16.2h-28.5l-5.9,16.2h-15.3l27.8-71.3h15.2l28.6,71.3h0ZM664.9,84.5l-9.8-26.5-9.6,26.5h19.5Z"/>
          <path class="st5" d="M707.7,112.7v-59.3h-21.2v-12.1h56.7v12.1h-21.1v59.3h-14.4Z"/>
        </g>
      </g>
      <g class="st3">
        <path class="st2" d="M311.5,143.3h5.2v22.7c0,3.9-.4,7.1-1.3,9.4-.9,2.3-2.5,4.2-4.8,5.7-2.3,1.5-5.4,2.2-9.2,2.2s-6.7-.6-9-1.9-4-3.1-5-5.5-1.5-5.7-1.5-9.8v-22.7h5.2v22.6c0,3.4.3,5.9,1,7.5.6,1.6,1.7,2.9,3.3,3.7,1.5.9,3.4,1.3,5.7,1.3,3.8,0,6.5-.9,8.2-2.6,1.6-1.7,2.4-5.1,2.4-10v-22.6h0Z"/>
        <path class="st2" d="M322.8,174l4.8-.7c.3,1.9,1,3.4,2.2,4.4,1.2,1,2.9,1.5,5.1,1.5s3.9-.5,4.9-1.4,1.6-2,1.6-3.2-.5-1.9-1.4-2.6c-.7-.4-2.3-1-4.9-1.6-3.5-.9-6-1.7-7.3-2.3-1.4-.7-2.4-1.6-3.1-2.7-.7-1.2-1.1-2.4-1.1-3.8s.3-2.4.9-3.5c.6-1.1,1.4-2,2.4-2.7.7-.6,1.8-1,3.1-1.4,1.3-.4,2.7-.6,4.2-.6,2.2,0,4.2.3,5.9,1,1.7.6,2.9,1.5,3.7,2.6.8,1.1,1.4,2.6,1.7,4.4l-4.7.6c-.2-1.5-.8-2.6-1.9-3.4-1-.8-2.5-1.2-4.3-1.2s-3.8.4-4.7,1.1c-.9.7-1.4,1.6-1.4,2.6s.2,1.2.6,1.7c.4.5,1,.9,1.8,1.3.5.2,1.9.6,4.3,1.2,3.4.9,5.8,1.7,7.1,2.2,1.3.6,2.4,1.4,3.2,2.5s1.2,2.5,1.2,4.1-.5,3.1-1.4,4.5c-.9,1.4-2.3,2.5-4.1,3.3-1.8.8-3.8,1.2-6,1.2-3.7,0-6.5-.8-8.4-2.3-1.9-1.5-3.2-3.8-3.7-6.8h0Z"/>
        <path class="st2" d="M371.5,173.3l5,.6c-.8,2.9-2.2,5.2-4.4,6.8s-4.8,2.4-8.1,2.4-7.5-1.3-9.9-3.8c-2.4-2.6-3.7-6.1-3.7-10.8s1.2-8.5,3.7-11.1,5.7-4,9.6-4,6.9,1.3,9.3,3.9c2.4,2.6,3.6,6.2,3.6,10.9s0,.7,0,1.3h-21.2c.2,3.1,1.1,5.5,2.6,7.2,1.6,1.7,3.6,2.5,5.9,2.5s3.3-.5,4.5-1.4,2.2-2.4,3-4.4h0ZM355.7,165.5h15.9c-.2-2.4-.8-4.2-1.8-5.4-1.5-1.9-3.5-2.8-6-2.8s-4.1.7-5.6,2.2c-1.5,1.5-2.3,3.5-2.5,5.9h0Z"/>
        <path class="st2" d="M382.5,182.5v-28.4h4.3v4.3c1.1-2,2.1-3.3,3.1-4,.9-.6,2-1,3.1-1,1.6,0,3.3.5,5,1.6l-1.7,4.5c-1.2-.7-2.4-1-3.5-1s-2,.3-2.8.9-1.4,1.5-1.8,2.6c-.5,1.7-.8,3.6-.8,5.6v14.9h-4.8,0Z"/>
        <path class="st2" d="M409.3,182.5l15.1-39.2h5.6l16.1,39.2h-5.9l-4.6-11.9h-16.4l-4.3,11.9h-5.5,0ZM420.6,166.4h13.3l-4.1-10.9c-1.2-3.3-2.2-6-2.8-8.1-.5,2.5-1.2,5-2.1,7.5l-4.3,11.5h0Z"/>
        <path class="st2" d="M468.1,172.1l4.7.6c-.5,3.3-1.8,5.8-4,7.7-2.1,1.8-4.8,2.8-7.9,2.8s-7-1.3-9.4-3.8c-2.4-2.5-3.5-6.2-3.5-10.9s.5-5.8,1.5-8.1,2.6-4,4.6-5.2c2.1-1.2,4.3-1.7,6.8-1.7s5.6.8,7.6,2.3,3.2,3.8,3.8,6.7l-4.7.7c-.4-1.9-1.2-3.3-2.4-4.3-1.1-1-2.5-1.4-4.1-1.4-2.4,0-4.4.9-5.9,2.6-1.5,1.7-2.3,4.5-2.3,8.3s.7,6.6,2.2,8.3c1.5,1.7,3.4,2.6,5.7,2.6s3.5-.6,4.7-1.7c1.3-1.2,2.1-2.9,2.4-5.4h0Z"/>
        <path class="st2" d="M495.5,172.1l4.7.6c-.5,3.3-1.8,5.8-4,7.7-2.1,1.8-4.8,2.8-7.9,2.8s-7-1.3-9.4-3.8c-2.4-2.5-3.5-6.2-3.5-10.9s.5-5.8,1.5-8.1,2.6-4,4.6-5.2c2.1-1.2,4.3-1.7,6.8-1.7s5.6.8,7.6,2.3,3.2,3.8,3.8,6.7l-4.7.7c-.4-1.9-1.2-3.3-2.4-4.3-1.1-1-2.5-1.4-4.1-1.4-2.4,0-4.4.9-5.9,2.6-1.5,1.7-2.3,4.5-2.3,8.3s.7,6.6,2.2,8.3c1.5,1.7,3.4,2.6,5.7,2.6s3.5-.6,4.7-1.7c1.3-1.2,2.1-2.9,2.4-5.4h0Z"/>
        <path class="st2" d="M523.8,173.3l5,.6c-.8,2.9-2.2,5.2-4.4,6.8s-4.8,2.4-8.1,2.4-7.5-1.3-9.9-3.8c-2.4-2.6-3.7-6.1-3.7-10.8s1.2-8.5,3.7-11.1,5.7-4,9.6-4,6.9,1.3,9.3,3.9c2.4,2.6,3.6,6.2,3.6,10.9s0,.7,0,1.3h-21.2c.2,3.1,1.1,5.5,2.6,7.2,1.6,1.7,3.6,2.5,5.9,2.5s3.3-.5,4.5-1.4,2.2-2.4,3-4.4h0ZM508,165.5h15.9c-.2-2.4-.8-4.2-1.8-5.4-1.5-1.9-3.5-2.8-6-2.8s-4.1.7-5.6,2.2c-1.5,1.5-2.3,3.5-2.5,5.9h0Z"/>
        <path class="st2" d="M534.9,193.4v-39.3h4.4v3.7c1-1.4,2.2-2.5,3.5-3.2,1.3-.7,2.9-1.1,4.7-1.1s4.6.6,6.4,1.9,3.3,3,4.2,5.3c.9,2.3,1.4,4.8,1.4,7.5s-.5,5.5-1.6,7.9c-1,2.3-2.6,4.1-4.5,5.4-2,1.2-4.1,1.9-6.3,1.9s-3-.3-4.3-1c-1.3-.7-2.3-1.5-3.1-2.6v13.8h-4.8,0ZM539.2,168.4c0,3.7.7,6.4,2.2,8.1s3.3,2.6,5.4,2.6,4-.9,5.5-2.7c1.5-1.8,2.3-4.6,2.3-8.4s-.7-6.3-2.2-8.1c-1.5-1.8-3.3-2.7-5.3-2.7s-3.9,1-5.4,2.9c-1.6,1.9-2.4,4.7-2.4,8.4h0Z"/>
        <path class="st2" d="M575.9,178.2l.7,4.3c-1.4.3-2.6.4-3.6.4-1.7,0-3.1-.3-4.1-.8-1-.5-1.6-1.3-2-2.2s-.6-2.8-.6-5.7v-16.4h-3.5v-3.7h3.5v-7l4.8-2.9v9.9h4.8v3.7h-4.8v16.6c0,1.4,0,2.3.3,2.7s.4.7.8.9c.4.2.9.3,1.6.3s1.2,0,2.1-.2h0Z"/>
        <path class="st2" d="M599.1,179c-1.8,1.5-3.5,2.6-5.2,3.2-1.6.6-3.4.9-5.3.9-3.1,0-5.5-.8-7.2-2.3-1.7-1.5-2.5-3.5-2.5-5.8s.3-2.7,1-3.8c.6-1.1,1.5-2.1,2.5-2.8,1-.7,2.2-1.2,3.5-1.6.9-.2,2.4-.5,4.3-.7,3.9-.5,6.8-1,8.6-1.7,0-.7,0-1.1,0-1.3,0-2-.5-3.3-1.4-4.1-1.2-1.1-3.1-1.6-5.5-1.6s-3.9.4-5,1.2c-1.1.8-1.9,2.2-2.4,4.2l-4.7-.6c.4-2,1.1-3.6,2.1-4.9,1-1.2,2.4-2.2,4.3-2.9,1.9-.7,4-1,6.5-1s4.4.3,5.9.9,2.6,1.3,3.3,2.2c.7.9,1.2,2,1.5,3.3.2.8.2,2.3.2,4.4v6.4c0,4.5.1,7.3.3,8.5.2,1.2.6,2.3,1.2,3.4h-5c-.5-1-.8-2.2-1-3.5h0ZM598.7,168.2c-1.7.7-4.4,1.3-7.9,1.8-2,.3-3.4.6-4.2,1-.8.4-1.4.9-1.9,1.6s-.7,1.4-.7,2.3c0,1.3.5,2.4,1.5,3.2s2.4,1.3,4.3,1.3,3.5-.4,4.9-1.2,2.5-1.9,3.2-3.3c.5-1.1.8-2.7.8-4.8v-1.8h0Z"/>
        <path class="st2" d="M611,182.5v-28.4h4.3v4c2.1-3.1,5.1-4.7,9-4.7s3.3.3,4.7.9c1.4.6,2.5,1.4,3.2,2.4.7,1,1.2,2.2,1.5,3.6.2.9.3,2.5.3,4.7v17.5h-4.8v-17.3c0-2-.2-3.4-.6-4.4-.4-1-1-1.7-2-2.3s-2.1-.9-3.4-.9c-2.1,0-3.8.7-5.3,2-1.5,1.3-2.2,3.8-2.2,7.4v15.5h-4.8,0Z"/>
        <path class="st2" d="M660.1,172.1l4.7.6c-.5,3.3-1.8,5.8-4,7.7-2.1,1.8-4.8,2.8-7.9,2.8s-7-1.3-9.4-3.8c-2.4-2.5-3.6-6.2-3.6-10.9s.5-5.8,1.5-8.1,2.6-4,4.6-5.2c2.1-1.2,4.3-1.7,6.8-1.7s5.6.8,7.6,2.3,3.2,3.8,3.8,6.7l-4.7.7c-.4-1.9-1.2-3.3-2.4-4.3-1.1-1-2.5-1.4-4.1-1.4-2.4,0-4.4.9-5.9,2.6-1.5,1.7-2.3,4.5-2.3,8.3s.7,6.6,2.2,8.3c1.5,1.7,3.4,2.6,5.7,2.6s3.5-.6,4.7-1.7c1.3-1.2,2.1-2.9,2.4-5.4h0Z"/>
        <path class="st2" d="M688.4,173.3l5,.6c-.8,2.9-2.2,5.2-4.4,6.8s-4.8,2.4-8.1,2.4-7.5-1.3-9.9-3.8-3.7-6.1-3.7-10.8,1.2-8.5,3.7-11.1,5.7-4,9.6-4,6.9,1.3,9.3,3.9c2.4,2.6,3.6,6.2,3.6,10.9s0,.7,0,1.3h-21.2c.2,3.1,1.1,5.5,2.6,7.2,1.6,1.7,3.6,2.5,5.9,2.5s3.3-.5,4.5-1.4,2.2-2.4,3-4.4h0ZM672.6,165.5h15.9c-.2-2.4-.8-4.2-1.8-5.4-1.5-1.9-3.5-2.8-6-2.8s-4.1.7-5.6,2.2c-1.5,1.5-2.3,3.5-2.5,5.9h0Z"/>
        <path class="st2" d="M724.2,182.5v-34.6h-12.9v-4.6h31.1v4.6h-13v34.6h-5.2Z"/>
        <path class="st2" d="M760.5,173.3l5,.6c-.8,2.9-2.2,5.2-4.4,6.8-2.1,1.6-4.8,2.4-8.1,2.4s-7.4-1.3-9.9-3.8c-2.4-2.6-3.6-6.1-3.6-10.8s1.2-8.5,3.7-11.1,5.7-4,9.6-4,6.9,1.3,9.3,3.9c2.4,2.6,3.6,6.2,3.6,10.9s0,.7,0,1.3h-21.2c.2,3.1,1.1,5.5,2.7,7.2,1.6,1.7,3.6,2.5,5.9,2.5s3.3-.5,4.5-1.4c1.2-.9,2.2-2.4,3-4.4h0ZM744.7,165.5h15.9c-.2-2.4-.8-4.2-1.8-5.4-1.5-1.9-3.5-2.8-6-2.8s-4.1.7-5.6,2.2c-1.5,1.5-2.3,3.5-2.5,5.9h0Z"/>
        <path class="st2" d="M769.6,174l4.8-.7c.3,1.9,1,3.4,2.2,4.4,1.2,1,2.9,1.5,5.1,1.5s3.9-.5,4.9-1.4,1.6-2,1.6-3.2-.5-1.9-1.4-2.6c-.7-.4-2.3-1-4.9-1.6-3.5-.9-6-1.7-7.3-2.3s-2.4-1.6-3.1-2.7c-.7-1.2-1.1-2.4-1.1-3.8s.3-2.4.9-3.5c.6-1.1,1.4-2,2.4-2.7.7-.6,1.8-1,3.1-1.4s2.7-.6,4.2-.6c2.2,0,4.2.3,5.9,1,1.7.6,2.9,1.5,3.7,2.6.8,1.1,1.4,2.6,1.7,4.4l-4.7.6c-.2-1.5-.8-2.6-1.9-3.4-1-.8-2.5-1.2-4.3-1.2s-3.8.4-4.7,1.1c-.9.7-1.4,1.6-1.4,2.6s.2,1.2.6,1.7c.4.5,1,.9,1.8,1.3.5.2,1.9.6,4.3,1.2,3.4.9,5.8,1.7,7.1,2.2,1.4.6,2.4,1.4,3.2,2.5.8,1.1,1.2,2.5,1.2,4.1s-.5,3.1-1.4,4.5c-.9,1.4-2.3,2.5-4.1,3.3-1.8.8-3.8,1.2-6,1.2-3.7,0-6.5-.8-8.4-2.3s-3.2-3.8-3.7-6.8h0Z"/>
        <path class="st2" d="M809.4,178.2l.7,4.3c-1.4.3-2.6.4-3.6.4-1.7,0-3.1-.3-4.1-.8-1-.5-1.6-1.3-2-2.2-.4-.9-.6-2.8-.6-5.7v-16.4h-3.5v-3.7h3.5v-7l4.8-2.9v9.9h4.8v3.7h-4.8v16.6c0,1.4,0,2.3.3,2.7.2.4.4.7.8.9.4.2.9.3,1.6.3s1.2,0,2.1-.2h0Z"/>
        <path class="st2" d="M814.2,148.8v-5.5h4.8v5.5h-4.8ZM814.2,182.5v-28.4h4.8v28.4h-4.8Z"/>
        <path class="st2" d="M826.3,182.5v-28.4h4.3v4c2.1-3.1,5.1-4.7,9-4.7s3.3.3,4.7.9c1.4.6,2.5,1.4,3.2,2.4.7,1,1.2,2.2,1.5,3.6.2.9.3,2.5.3,4.7v17.5h-4.8v-17.3c0-2-.2-3.4-.6-4.4s-1-1.7-2-2.3c-1-.6-2.1-.9-3.4-.9-2,0-3.8.7-5.3,2-1.5,1.3-2.2,3.8-2.2,7.4v15.5h-4.8,0Z"/>
        <path class="st2" d="M855.9,184.8l4.7.7c.2,1.4.7,2.5,1.6,3.2,1.2.9,2.8,1.3,4.9,1.3s4-.4,5.2-1.3,2-2.1,2.5-3.7c.2-1,.4-3,.3-6.2-2.1,2.5-4.7,3.7-7.9,3.7s-6.9-1.4-9.1-4.2-3.2-6.2-3.2-10.1.5-5.2,1.5-7.5c1-2.3,2.4-4.1,4.3-5.3s4.1-1.9,6.6-1.9,6.1,1.4,8.3,4.1v-3.4h4.4v24.6c0,4.4-.5,7.6-1.4,9.4-.9,1.8-2.3,3.3-4.3,4.4-2,1.1-4.4,1.6-7.2,1.6s-6.1-.8-8.2-2.3c-2.1-1.5-3.1-3.8-3-6.9h0ZM859.9,167.8c0,3.7.7,6.4,2.2,8.2s3.3,2.6,5.6,2.6,4.1-.9,5.6-2.6,2.2-4.4,2.2-8-.8-6.1-2.3-7.9-3.4-2.7-5.6-2.7-4,.9-5.5,2.6c-1.5,1.7-2.2,4.3-2.2,7.7Z"/>
      </g>
    </g>
  </g>
</svg>